<svg xmlns="http://www.w3.org/2000/svg" xmlns:xlink="http://www.w3.org/1999/xlink" width="426" zoomAndPan="magnify" viewBox="0 0 319.5 399.749989" height="533" preserveAspectRatio="xMidYMid meet" version="1.0"><defs><clipPath id="be6e330302"><path d="M 46 67.929688 L 237 67.929688 L 237 151 L 46 151 Z M 46 67.929688 " clip-rule="nonzero"/></clipPath></defs><g clip-path="url(#be6e330302)"><path fill="#1e478d" d="M 138.640625 13.183594 C 130.042969 13.5 125.105469 14.671875 122.542969 16.992188 C 121.34375 18.070312 120.808594 18.972656 120.808594 19.976562 C 120.808594 20.78125 121.980469 20.414062 108.542969 23.90625 C 98.820312 26.449219 96.351562 27.328125 93.980469 29.0625 C 92.5625 30.089844 92.125 31.140625 92.492188 32.628906 C 92.660156 33.265625 92.6875 33.828125 92.5625 33.949219 C 92.441406 34.070312 91.292969 34.804688 90.023438 35.5625 C 86.285156 37.785156 82.472656 40.375 78.859375 43.085938 C 61.707031 55.9375 51.371094 71.085938 47.878906 88.429688 C 46.925781 93.195312 46.683594 95.6875 46.65625 101.011719 C 46.65625 106.632812 46.949219 108.414062 48.125 109.589844 C 48.464844 109.929688 48.808594 110.710938 48.980469 111.519531 C 49.761719 115.355469 52.128906 120.535156 53.988281 122.511719 C 55.28125 123.90625 55.917969 123.929688 56.015625 122.5625 C 56.113281 121.535156 55.304688 118.140625 54.453125 115.867188 L 53.890625 114.328125 L 54.476562 113.691406 C 55.550781 112.542969 55.648438 111.789062 55.355469 106.558594 C 55.011719 100.621094 55.109375 100.132812 57.480469 95.832031 C 59.386719 92.390625 60.121094 90.261719 61.097656 85.132812 C 62.097656 79.929688 62.171875 79.683594 62.878906 79.121094 C 63.394531 78.707031 63.734375 78.632812 64.589844 78.757812 C 66.667969 79.050781 67.398438 78.292969 70.746094 72.429688 C 71.578125 70.9375 72.703125 69.105469 73.214844 68.347656 L 74.167969 66.929688 L 75.390625 67.542969 C 77.390625 68.570312 76.707031 69.03125 88.386719 58.453125 C 92.269531 54.910156 96.449219 52.078125 106.246094 46.3125 L 111.082031 43.453125 L 112.011719 44.0625 C 113.5 45.042969 114.84375 45.261719 118.558594 45.113281 C 122.050781 44.992188 125.71875 44.429688 130.703125 43.257812 C 132.3125 42.867188 134.144531 42.476562 134.78125 42.402344 L 135.929688 42.230469 L 137.320312 43.699219 C 138.933594 45.433594 140.15625 46.066406 142.183594 46.289062 C 144.089844 46.507812 149.441406 46.089844 158.554688 45.066406 C 169.105469 43.867188 169.644531 43.84375 170.695312 44.285156 C 171.671875 44.699219 171.964844 45.140625 172.503906 46.875 C 172.675781 47.507812 173.089844 48.265625 173.382812 48.535156 C 173.75 48.875 175.65625 49.535156 178.832031 50.441406 C 181.519531 51.199219 185.550781 52.445312 187.820312 53.175781 C 191.558594 54.398438 192.171875 54.691406 194.832031 56.449219 C 199.621094 59.625 203.675781 63.878906 205.65625 67.785156 C 207.34375 71.183594 207.878906 75.410156 207.21875 80.367188 C 206.265625 87.40625 203.261719 93.660156 198.230469 99.035156 C 191.316406 106.414062 179.589844 112.421875 166.199219 115.402344 C 159.726562 116.84375 156.941406 117.113281 148.78125 117.136719 C 141.890625 117.136719 140.914062 117.089844 138.054688 116.574219 C 129.796875 115.085938 124.570312 112.714844 120.441406 108.585938 C 117.070312 105.238281 115.433594 101.722656 115.433594 97.835938 C 115.433594 93.316406 114.210938 88.40625 112.453125 85.742188 C 110.472656 82.789062 107.613281 80.636719 104.070312 79.464844 C 102.289062 78.855469 101.773438 78.804688 98.328125 78.804688 C 94.910156 78.804688 94.324219 78.878906 92.34375 79.464844 C 85.039062 81.6875 79.445312 86.574219 76.636719 93.195312 C 75.558594 95.710938 75.097656 97.960938 75.390625 99.011719 C 75.585938 99.695312 75.851562 99.9375 77.367188 100.671875 C 79.566406 101.699219 79.640625 101.992188 78.441406 104.53125 C 77 107.585938 76.832031 109.5625 77.734375 112.496094 C 78.492188 115.011719 79.835938 116.28125 82.179688 116.796875 C 82.890625 116.941406 83.746094 117.308594 84.085938 117.601562 C 84.722656 118.140625 84.722656 118.140625 84.429688 120.09375 C 84.085938 122.464844 84.378906 124.273438 85.308594 125.6875 C 89.582031 132.1875 96.742188 138.222656 105 142.253906 C 111.765625 145.550781 117.3125 147.1875 126.304688 148.507812 C 145.164062 151.292969 165.394531 150.558594 182.054688 146.457031 C 194.882812 143.28125 202.136719 139.152344 202.308594 134.898438 C 202.359375 133.777344 202.359375 133.777344 203.53125 133.359375 C 215.40625 129.328125 229.402344 112.105469 234.484375 95.273438 C 236.171875 89.675781 236.855469 85.109375 236.855469 79.21875 C 236.855469 71.011719 235.121094 63.414062 231.480469 55.816406 C 228.035156 48.65625 222.050781 40.816406 215.550781 34.949219 C 212.984375 32.605469 212.839844 32.53125 210.738281 31.921875 C 208.660156 31.335938 208.515625 31.238281 206.78125 29.503906 C 201.675781 24.347656 192.339844 20.390625 177.878906 17.214844 C 175.703125 16.726562 172.96875 16.066406 171.746094 15.75 C 169.132812 15.039062 166.199219 14.550781 161.242188 14.039062 C 159.238281 13.84375 156.964844 13.550781 156.230469 13.425781 C 154.398438 13.085938 144.773438 12.9375 138.640625 13.183594 Z M 138.640625 13.183594 " fill-opacity="1" fill-rule="nonzero"/></g><path fill="#1e478d" d="M 296.566406 72.550781 C 295.734375 72.867188 294.855469 74.164062 292.046875 79.097656 C 287.234375 87.625 283.445312 93.171875 278.265625 99.304688 C 248.949219 133.996094 202.210938 155.496094 142.0625 161.945312 C 119.855469 164.339844 92.222656 164.535156 70.601562 162.457031 C 67.277344 162.117188 56.453125 159.671875 45.09375 156.691406 C 43.140625 156.179688 41.210938 156.421875 38.863281 157.523438 C 38.007812 157.914062 37.203125 158.183594 37.082031 158.085938 C 36.957031 158.011719 36.324219 156.960938 35.664062 155.765625 C 31.925781 148.851562 27.527344 148.554688 24.425781 154.980469 C 22.765625 158.425781 21.152344 164.558594 18.5625 177.433594 C 16.242188 188.992188 16.046875 195.804688 17.949219 200.863281 C 20.246094 207.046875 26.476562 211.273438 38.398438 214.839844 C 53.277344 219.261719 73.457031 221.972656 101.75 223.339844 C 110.546875 223.78125 147.902344 223.78125 155.867188 223.339844 C 174.75 222.339844 192.976562 220.726562 208.734375 218.675781 C 212.253906 218.234375 213.523438 218.285156 213.523438 218.894531 C 213.523438 219.554688 212.300781 220.117188 210.324219 220.359375 C 206.558594 220.824219 204.703125 221.726562 201.160156 224.78125 C 196.859375 228.496094 196.105469 228.714844 192.511719 227.46875 C 188.898438 226.222656 188.015625 226.371094 184.253906 229.007812 C 182.765625 230.035156 182.617188 230.035156 179.5625 229.398438 C 177.585938 228.984375 172.796875 229.230469 170.351562 229.863281 C 168.277344 230.402344 166.882812 231.0625 163.832031 232.917969 C 161.851562 234.113281 161.703125 234.164062 160.042969 234.140625 C 158.75 234.113281 157.601562 233.871094 155.597656 233.210938 C 150.90625 231.671875 149.953125 231.769531 146.363281 234.140625 C 145.238281 234.898438 144.015625 235.507812 143.675781 235.507812 C 143.332031 235.507812 142.257812 235.335938 141.28125 235.117188 C 140.304688 234.898438 138.445312 234.726562 137.175781 234.726562 C 134.953125 234.703125 134.707031 234.75 131.921875 235.875 C 128.550781 237.21875 129.066406 237.242188 123.25 235.507812 C 119.195312 234.308594 114.941406 233.429688 111.402344 233.039062 C 108.199219 232.699219 100.40625 232.894531 95.886719 233.429688 C 92.269531 233.847656 90.535156 233.894531 89.632812 233.554688 C 89.265625 233.40625 88.289062 232.746094 87.433594 232.0625 C 85.453125 230.472656 83.890625 229.816406 82.179688 229.789062 C 79.785156 229.765625 78.90625 230.71875 78.515625 233.820312 C 77.953125 238.339844 79.199219 247.0625 81.398438 253.953125 C 83.304688 259.9375 87.019531 268.464844 89.167969 271.789062 C 90.144531 273.300781 91.660156 274.816406 92.367188 274.988281 C 92.6875 275.0625 93.152344 275.0625 93.445312 274.964844 C 93.980469 274.792969 95.398438 272.546875 95.398438 271.859375 C 95.398438 271.078125 95.886719 271.152344 97.058594 272.128906 C 99.210938 273.914062 103.144531 275.085938 107.078125 275.085938 C 112.109375 275.085938 128.894531 272.398438 134.609375 270.664062 C 137.152344 269.90625 138.933594 269.46875 139.59375 269.46875 C 139.9375 269.46875 140.890625 269.761719 141.769531 270.101562 C 145.066406 271.421875 148.730469 271.738281 152.835938 271.03125 C 156.0625 270.46875 163.21875 268.390625 171.257812 265.65625 C 175.019531 264.359375 179.539062 263.015625 181.273438 262.625 C 198.960938 258.765625 223.761719 248.089844 245.527344 234.96875 C 269.03125 220.824219 283.859375 209.21875 285.523438 203.722656 C 285.765625 202.890625 285.863281 202.792969 287.085938 202.574219 C 289.992188 201.988281 292.046875 200.253906 292.925781 197.589844 L 293.316406 196.464844 L 294.804688 196.492188 C 296.148438 196.539062 296.320312 196.492188 296.785156 195.855469 C 297.492188 194.925781 297.617188 192.628906 297.078125 190.554688 C 296.566406 188.597656 295.125 185.496094 293.730469 183.445312 C 292.144531 181.097656 280.488281 166.464844 278.78125 164.679688 C 277.140625 162.996094 275.359375 161.96875 273.964844 161.96875 C 271.914062 161.96875 269.082031 163.238281 264.460938 166.269531 C 260.921875 168.589844 259.796875 168.90625 253.296875 169.519531 C 250.414062 169.789062 249.070312 170.375 248.167969 171.742188 C 247.164062 173.28125 247.191406 173.28125 245.429688 173.109375 C 244.550781 173.035156 242.328125 172.890625 240.519531 172.816406 C 236.804688 172.671875 236.050781 172.867188 235.925781 174.015625 C 235.878906 174.476562 235.65625 174.722656 235.21875 174.820312 C 233.921875 175.164062 220.339844 174.550781 217.066406 174.039062 C 216.285156 173.890625 216.429688 173.820312 219.144531 172.867188 C 229.5 169.199219 246.164062 160.992188 256.253906 154.589844 C 261.578125 151.21875 266.269531 147.261719 267.738281 144.941406 C 268.640625 143.476562 269.03125 141.886719 268.6875 141.128906 C 268.421875 140.542969 268.566406 140.347656 272.109375 137.121094 C 284.910156 125.46875 287.890625 121.488281 286.304688 118.1875 C 285.9375 117.382812 285.9375 117.359375 286.964844 115.550781 C 288.675781 112.519531 293.167969 103.164062 294.390625 100.035156 C 297.542969 92 299.03125 86.035156 299.324219 80.246094 C 299.570312 74.945312 298.472656 71.84375 296.566406 72.550781 Z M 296.566406 72.550781 " fill-opacity="1" fill-rule="nonzero"/><path fill="#da2128" d="M 137.707031 11.847656 C 129.015625 12.171875 124.03125 13.355469 121.4375 15.699219 C 120.230469 16.785156 119.6875 17.699219 119.6875 18.710938 C 119.6875 19.527344 120.871094 19.15625 107.292969 22.6875 C 97.46875 25.253906 94.976562 26.140625 92.582031 27.894531 C 91.152344 28.929688 90.707031 29.992188 91.078125 31.5 C 91.25 32.140625 91.273438 32.707031 91.152344 32.832031 C 91.027344 32.953125 89.867188 33.695312 88.582031 34.460938 C 84.808594 36.707031 80.957031 39.324219 77.300781 42.0625 C 59.972656 55.046875 49.53125 70.351562 46.003906 87.878906 C 45.039062 92.691406 44.792969 95.210938 44.769531 100.589844 C 44.769531 106.269531 45.0625 108.070312 46.25 109.253906 C 46.59375 109.601562 46.941406 110.390625 47.113281 111.207031 C 47.902344 115.082031 50.296875 120.316406 52.171875 122.3125 C 53.480469 123.722656 54.125 123.746094 54.222656 122.363281 C 54.320312 121.328125 53.507812 117.894531 52.644531 115.601562 L 52.074219 114.042969 L 52.667969 113.402344 C 53.753906 112.242188 53.851562 111.476562 53.554688 106.195312 C 53.210938 100.195312 53.308594 99.703125 55.703125 95.359375 C 57.628906 91.878906 58.371094 89.730469 59.355469 84.546875 C 60.367188 79.289062 60.441406 79.042969 61.160156 78.472656 C 61.675781 78.054688 62.023438 77.980469 62.886719 78.105469 C 64.984375 78.398438 65.726562 77.632812 69.105469 71.710938 C 69.945312 70.203125 71.082031 68.351562 71.601562 67.585938 L 72.5625 66.15625 L 73.796875 66.773438 C 75.820312 67.808594 75.128906 68.277344 86.929688 57.589844 C 90.855469 54.011719 95.074219 51.148438 104.972656 45.320312 L 109.863281 42.433594 L 110.800781 43.050781 C 112.304688 44.039062 113.664062 44.261719 117.414062 44.113281 C 120.945312 43.988281 124.648438 43.421875 129.683594 42.238281 C 131.3125 41.839844 133.164062 41.445312 133.804688 41.371094 L 134.964844 41.199219 L 136.375 42.679688 C 138.003906 44.433594 139.238281 45.074219 141.285156 45.296875 C 143.210938 45.519531 148.617188 45.101562 157.824219 44.0625 C 168.488281 42.855469 169.03125 42.828125 170.09375 43.273438 C 171.082031 43.691406 171.375 44.136719 171.917969 45.890625 C 172.09375 46.53125 172.511719 47.296875 172.808594 47.570312 C 173.179688 47.914062 175.105469 48.582031 178.3125 49.492188 C 181.027344 50.257812 185.101562 51.519531 187.398438 52.257812 C 191.171875 53.492188 191.789062 53.789062 194.480469 55.566406 C 199.320312 58.773438 203.417969 63.070312 205.417969 67.019531 C 207.121094 70.453125 207.664062 74.722656 206.996094 79.734375 C 206.035156 86.84375 202.996094 93.160156 197.914062 98.59375 C 190.925781 106.046875 179.078125 112.121094 165.550781 115.128906 C 159.007812 116.585938 156.195312 116.859375 147.949219 116.882812 C 140.988281 116.882812 140.003906 116.835938 137.113281 116.316406 C 128.769531 114.808594 123.488281 112.414062 119.316406 108.242188 C 115.910156 104.863281 114.257812 101.308594 114.257812 97.382812 C 114.257812 92.816406 113.023438 87.855469 111.246094 85.164062 C 109.246094 82.175781 106.355469 80.003906 102.777344 78.820312 C 100.976562 78.203125 100.457031 78.152344 96.976562 78.152344 C 93.519531 78.152344 92.929688 78.226562 90.929688 78.820312 C 83.546875 81.066406 77.894531 86.003906 75.054688 92.691406 C 73.96875 95.234375 73.5 97.503906 73.796875 98.566406 C 73.996094 99.257812 74.265625 99.503906 75.796875 100.246094 C 78.019531 101.28125 78.09375 101.578125 76.882812 104.144531 C 75.425781 107.230469 75.253906 109.230469 76.167969 112.191406 C 76.933594 114.734375 78.289062 116.019531 80.660156 116.539062 C 81.375 116.6875 82.238281 117.054688 82.585938 117.351562 C 83.226562 117.894531 83.226562 117.894531 82.929688 119.871094 C 82.585938 122.265625 82.882812 124.089844 83.820312 125.523438 C 88.140625 132.089844 95.371094 138.1875 103.714844 142.257812 C 110.554688 145.59375 116.15625 147.246094 125.242188 148.578125 C 144.296875 151.394531 164.738281 150.652344 181.570312 146.503906 C 194.53125 143.296875 201.863281 139.125 202.035156 134.828125 C 202.085938 133.695312 202.085938 133.695312 203.269531 133.273438 C 215.265625 129.199219 229.410156 111.796875 234.546875 94.789062 C 236.25 89.136719 236.9375 84.523438 236.9375 78.574219 C 236.9375 70.277344 235.1875 62.601562 231.507812 54.925781 C 228.027344 47.691406 221.980469 39.769531 215.414062 33.84375 C 212.824219 31.472656 212.675781 31.398438 210.550781 30.78125 C 208.453125 30.191406 208.304688 30.089844 206.550781 28.339844 C 201.394531 23.128906 191.964844 19.132812 177.351562 15.921875 C 175.152344 15.429688 172.386719 14.761719 171.15625 14.441406 C 168.511719 13.726562 165.550781 13.230469 160.539062 12.714844 C 158.515625 12.515625 156.21875 12.21875 155.480469 12.097656 C 153.628906 11.75 143.902344 11.601562 137.707031 11.847656 Z M 137.707031 11.847656 " fill-opacity="1" fill-rule="nonzero"/><path fill="#f79831" d="M 232.972656 3.855469 C 232.972656 3.925781 233.789062 5 234.792969 6.234375 C 237.410156 9.484375 242.3125 14.457031 248.96875 20.597656 C 252.167969 23.566406 257.332031 28.492188 260.414062 31.527344 L 266.019531 37.0625 L 263.894531 36.269531 C 261.136719 35.242188 258.3125 34.753906 255.066406 34.753906 C 252.378906 34.753906 249.0625 35.289062 247.359375 36.011719 L 246.445312 36.386719 L 246.609375 37.859375 C 246.773438 39.5625 247.917969 42.0625 249.226562 43.582031 C 251.28125 46.007812 255.460938 48.414062 262.421875 51.21875 C 272.113281 55.140625 280.636719 57.382812 287.316406 57.78125 C 294.765625 58.222656 299.109375 55.351562 300.277344 49.230469 C 300.652344 47.292969 300.347656 42.527344 299.671875 39.609375 C 299.089844 37.085938 297.476562 31.972656 296.914062 30.898438 L 296.613281 30.339844 L 295.445312 30.875 C 293.367188 31.832031 292.175781 33.65625 291.054688 37.507812 C 290.632812 38.980469 290.445312 39.375 290.261719 39.144531 C 290.121094 38.980469 289.164062 37.085938 288.132812 34.9375 C 287.105469 32.789062 285.683594 30.152344 284.980469 29.054688 C 283.394531 26.648438 277.953125 21.113281 274.191406 18.078125 C 264.476562 10.300781 253.125 5.324219 241.847656 3.925781 C 239.699219 3.667969 232.972656 3.597656 232.972656 3.855469 Z M 232.972656 3.855469 " fill-opacity="1" fill-rule="nonzero"/><path fill="#1e478d" d="M 71.328125 296.9375 C 66.910156 297.425781 62.792969 298.910156 59.402344 301.230469 C 57.796875 302.347656 55.039062 305.019531 53.835938 306.660156 C 46.277344 316.945312 47.304688 332.777344 56.085938 341.558594 C 59.859375 345.332031 64.710938 347.652344 70.261719 348.335938 C 72.550781 348.632812 76.933594 348.472656 79.011719 348.019531 C 82.152344 347.339844 85.066406 346.117188 87.6875 344.386719 C 89.34375 343.289062 92.226562 340.496094 93.464844 338.765625 C 98.371094 331.941406 99.75 322.269531 96.992188 313.855469 C 94.96875 307.671875 90.636719 302.503906 85.066406 299.660156 C 82.972656 298.578125 80.265625 297.652344 78.136719 297.285156 C 76.53125 297.007812 72.585938 296.796875 71.328125 296.9375 Z M 76.792969 309.140625 C 78.488281 309.488281 80.703125 310.554688 81.875 311.601562 C 84.300781 313.785156 85.628906 317.117188 85.855469 321.621094 C 86.117188 327.210938 84.507812 331.851562 81.488281 334.15625 C 79.253906 335.867188 77.105469 336.515625 73.597656 336.515625 C 70.925781 336.53125 69.355469 336.21875 67.46875 335.292969 C 63.246094 333.234375 61.097656 328.5 61.34375 321.796875 C 61.464844 318.742188 61.867188 316.910156 62.914062 314.8125 C 64.328125 311.933594 67.101562 309.820312 70.28125 309.15625 C 71.921875 308.824219 75.117188 308.808594 76.792969 309.140625 Z M 76.792969 309.140625 " fill-opacity="1" fill-rule="nonzero"/><path fill="#1e478d" d="M 118.152344 297.09375 C 111.097656 298.246094 106.75 301.71875 105.023438 307.570312 C 104.394531 309.664062 104.21875 313.277344 104.65625 314.988281 C 105.597656 318.777344 108.496094 321.917969 113.28125 324.382812 C 115.5 325.535156 118.625 326.878906 121.292969 327.835938 C 123.476562 328.625 125.589844 329.636719 126.515625 330.316406 C 127.808594 331.277344 128.367188 333.285156 127.738281 334.785156 C 127.421875 335.535156 126.375 336.390625 125.273438 336.757812 C 123.949219 337.230469 119.566406 337.179688 116.457031 336.65625 C 113.769531 336.199219 110.296875 335.328125 108.007812 334.558594 C 106.054688 333.894531 105.757812 333.878906 105.460938 334.488281 C 104.847656 335.832031 102.160156 342.433594 102.074219 342.886719 C 101.914062 343.566406 102.441406 344.023438 104.796875 345.15625 C 108.042969 346.746094 111.257812 347.601562 116.371094 348.265625 C 119.777344 348.71875 125.851562 348.683594 128.503906 348.195312 C 134.683594 347.058594 138.632812 344.511719 140.550781 340.390625 C 141.652344 338.035156 141.859375 336.96875 141.859375 333.496094 C 141.859375 330.089844 141.703125 329.339844 140.621094 327.140625 C 138.457031 322.84375 134.71875 320.296875 124.664062 316.296875 C 122.796875 315.566406 121.03125 314.832031 120.734375 314.691406 C 118.796875 313.714844 117.523438 311.984375 117.769531 310.675781 C 117.941406 309.664062 118.484375 308.949219 119.390625 308.492188 C 120.160156 308.109375 120.40625 308.09375 123.355469 308.109375 C 127.003906 308.128906 129.867188 308.511719 133.96875 309.507812 C 136.589844 310.152344 136.605469 310.152344 136.886719 309.804688 C 137.25 309.332031 139.714844 301.476562 139.644531 300.988281 C 139.554688 300.289062 136.570312 298.925781 133.429688 298.125 C 129.152344 297.039062 121.609375 296.535156 118.152344 297.09375 Z M 118.152344 297.09375 " fill-opacity="1" fill-rule="nonzero"/><path fill="#1e478d" d="M 169.097656 296.9375 C 165.691406 297.285156 162.550781 298.191406 159.722656 299.660156 C 149.523438 304.878906 144.390625 316.996094 147.117188 329.304688 C 148.234375 334.296875 150.519531 338.417969 154.082031 341.855469 C 157.417969 345.050781 161.117188 347.007812 165.777344 348.019531 C 168.101562 348.527344 172.535156 348.632812 175.085938 348.265625 C 185.367188 346.746094 192.925781 339.65625 195.300781 329.304688 C 197.03125 321.710938 195.632812 313.660156 191.496094 307.445312 C 190.1875 305.492188 187.289062 302.539062 185.386719 301.230469 C 182.609375 299.328125 178.960938 297.84375 175.695312 297.269531 C 174.140625 296.988281 170.371094 296.796875 169.097656 296.9375 Z M 174.386719 309.140625 C 177.6875 309.804688 180.515625 311.933594 181.910156 314.847656 C 182.871094 316.839844 183.324219 318.777344 183.445312 321.554688 C 183.726562 327.734375 182 332.273438 178.472656 334.59375 C 173.828125 337.667969 166.25 337.144531 162.585938 333.496094 C 160.246094 331.171875 159.128906 328.117188 158.933594 323.542969 C 158.726562 318.445312 160.175781 314.082031 162.863281 311.671875 C 164.066406 310.589844 166.214844 309.523438 167.875 309.15625 C 169.496094 308.824219 172.710938 308.808594 174.386719 309.140625 Z M 174.386719 309.140625 " fill-opacity="1" fill-rule="nonzero"/><path fill="#1e478d" d="M 3.046875 297.894531 C 2.332031 298.105469 1.652344 298.804688 1.371094 299.589844 C 1.199219 300.113281 1.144531 304.792969 1.144531 323.035156 L 1.144531 345.820312 L 1.617188 346.554688 C 2.472656 347.84375 2.121094 347.808594 16.789062 347.808594 C 30.71875 347.808594 31.015625 347.792969 34.089844 346.832031 C 36.078125 346.203125 37.914062 345.226562 39.554688 343.898438 C 41.875 342.03125 43.34375 339.882812 44.285156 336.984375 C 44.722656 335.625 44.773438 335.273438 44.773438 332.796875 C 44.773438 329.671875 44.582031 328.691406 43.445312 326.335938 C 42.871094 325.148438 42.453125 324.574219 41.230469 323.351562 C 39.957031 322.078125 39.449219 321.710938 38.085938 321.0625 L 36.464844 320.277344 L 37.703125 319.457031 C 42.503906 316.261719 44.128906 310.046875 41.578125 304.601562 C 40.09375 301.457031 37.09375 299.171875 33.09375 298.191406 C 31.558594 297.828125 31.277344 297.808594 17.554688 297.773438 C 9.421875 297.738281 3.363281 297.792969 3.046875 297.894531 Z M 27.683594 308.128906 C 29.097656 308.878906 29.691406 309.960938 29.671875 311.707031 C 29.65625 313.523438 29.132812 314.445312 27.734375 315.199219 C 26.984375 315.597656 26.929688 315.597656 20.523438 315.597656 L 14.0625 315.597656 L 14.011719 311.847656 C 13.996094 309.785156 14.011719 308.003906 14.0625 307.867188 C 14.132812 307.691406 15.375 307.65625 20.558594 307.691406 C 26.757812 307.742188 27 307.761719 27.683594 308.128906 Z M 28.765625 326.824219 C 29.863281 327.402344 30.613281 328.117188 31.085938 329.078125 C 31.46875 329.8125 31.523438 330.140625 31.523438 331.75 C 31.523438 333.425781 31.488281 333.652344 31.050781 334.386719 C 30.441406 335.433594 29.585938 336.164062 28.539062 336.566406 C 27.75 336.863281 27.105469 336.898438 20.875 336.898438 L 14.0625 336.898438 L 14.011719 331.835938 C 13.996094 329.058594 14.011719 326.667969 14.0625 326.546875 C 14.132812 326.371094 15.496094 326.335938 21.082031 326.371094 C 27.910156 326.421875 28.046875 326.421875 28.765625 326.824219 Z M 28.765625 326.824219 " fill-opacity="1" fill-rule="nonzero"/><path fill="#1e478d" d="M 195.789062 298.28125 C 195.703125 298.523438 211.449219 345.769531 211.957031 346.78125 C 212.132812 347.113281 212.480469 347.480469 212.742188 347.601562 C 213.058594 347.742188 214.644531 347.808594 218.015625 347.808594 C 224.703125 347.808594 224.300781 348.054688 226.011719 342.746094 C 230.183594 329.84375 232.785156 322.023438 232.996094 321.816406 C 233.675781 321.132812 233.746094 321.289062 238.039062 334.140625 C 241.847656 345.59375 242.195312 346.535156 242.769531 347.113281 L 243.382812 347.722656 L 253.664062 347.722656 L 254.1875 347.21875 C 254.46875 346.9375 254.851562 346.308594 255.042969 345.820312 C 256.214844 342.78125 271.296875 298.507812 271.210938 298.386719 C 271.070312 298.140625 258.867188 298.175781 258.328125 298.421875 C 258.101562 298.523438 257.785156 298.910156 257.628906 299.257812 C 257.472656 299.605469 255.273438 305.613281 252.738281 312.613281 C 248.65625 323.855469 247.957031 325.636719 247.574219 325.636719 C 247.171875 325.636719 246.558594 323.804688 243.296875 312.667969 C 241.234375 305.699219 239.4375 299.746094 239.28125 299.449219 C 239.121094 299.152344 238.753906 298.75 238.441406 298.578125 C 237.933594 298.261719 237.535156 298.226562 233.816406 298.226562 C 229.539062 298.226562 228.980469 298.316406 228.316406 299.066406 C 228.140625 299.257812 226.046875 305.210938 223.671875 312.300781 C 220.984375 320.261719 219.21875 325.253906 219.046875 325.375 C 218.851562 325.5 218.679688 325.5 218.46875 325.359375 C 218.277344 325.238281 216.671875 320.644531 213.878906 312.265625 C 211.503906 305.160156 209.476562 299.171875 209.355469 298.945312 C 208.902344 298.105469 208.414062 298.054688 201.917969 298.054688 C 197.132812 298.054688 195.859375 298.105469 195.789062 298.28125 Z M 195.789062 298.28125 " fill-opacity="1" fill-rule="nonzero"/><path fill="#1e478d" d="M 283.675781 298.226562 C 281.632812 298.558594 280.570312 299.484375 279.714844 301.71875 C 278.371094 305.246094 263.964844 347.183594 264.019531 347.425781 C 264.070312 347.707031 264.628906 347.722656 270.375 347.777344 C 276.203125 347.808594 276.710938 347.792969 277.058594 347.496094 C 277.355469 347.269531 277.828125 345.996094 278.894531 342.574219 L 280.324219 337.945312 L 297.242188 337.945312 L 298.65625 342.554688 C 299.441406 345.085938 300.226562 347.285156 300.367188 347.445312 C 300.628906 347.6875 301.433594 347.722656 307.191406 347.777344 C 313.304688 347.828125 313.742188 347.808594 313.878906 347.511719 C 314.003906 347.269531 312.0625 341.4375 306.074219 324.136719 C 301.675781 311.460938 297.886719 300.707031 297.625 300.269531 C 297.101562 299.378906 296.351562 298.75 295.410156 298.402344 C 294.65625 298.125 285.195312 298 283.675781 298.226562 Z M 289.4375 312.839844 C 289.839844 313.644531 294.203125 328.117188 294.117188 328.34375 C 294.03125 328.570312 293.296875 328.605469 288.898438 328.605469 C 284.882812 328.605469 283.710938 328.554688 283.570312 328.378906 C 283.433594 328.203125 284.042969 326.179688 286.015625 320.347656 C 288.179688 313.957031 288.722656 312.542969 288.964844 312.542969 C 289.140625 312.542969 289.351562 312.683594 289.4375 312.839844 Z M 289.4375 312.839844 " fill-opacity="1" fill-rule="nonzero"/><path fill="#1e478d" d="M 137.320312 368.917969 C 132.242188 369.773438 128.453125 372.390625 126.394531 376.53125 C 124.332031 380.667969 124.332031 385.3125 126.394531 389.449219 C 128.191406 393.0625 131.367188 395.578125 135.628906 396.730469 C 137.601562 397.269531 141.964844 397.269531 143.957031 396.730469 C 146 396.171875 148.304688 394.984375 149.542969 393.832031 L 150.589844 392.851562 L 149.28125 391.648438 L 147.972656 390.425781 L 147.449219 390.863281 C 144.847656 393.011719 142.175781 393.902344 139.136719 393.65625 C 134.214844 393.253906 130.636719 390.445312 129.273438 385.957031 C 128.835938 384.527344 128.835938 381.453125 129.273438 380.019531 C 130.390625 376.320312 133.132812 373.667969 136.886719 372.652344 C 138.457031 372.234375 141.667969 372.234375 143.066406 372.671875 C 144.515625 373.109375 145.894531 373.824219 147.027344 374.75 L 147.972656 375.515625 L 149.28125 374.296875 L 150.589844 373.074219 L 149.492188 372.058594 C 148.199219 370.890625 146.171875 369.824219 144.128906 369.285156 C 142.578125 368.867188 138.839844 368.671875 137.320312 368.917969 Z M 137.320312 368.917969 " fill-opacity="1" fill-rule="nonzero"/><path fill="#1e478d" d="M 231.84375 369.023438 C 229.082031 369.546875 226.691406 370.644531 224.683594 372.304688 C 219.96875 376.214844 218.488281 383.355469 221.191406 389.082031 C 223.707031 394.441406 229.328125 397.53125 235.859375 397.164062 C 242.597656 396.800781 247.765625 392.785156 249.421875 386.65625 C 249.894531 384.925781 249.894531 381.050781 249.421875 379.324219 C 248.0625 374.296875 244.308594 370.628906 239.105469 369.265625 C 237.273438 368.796875 233.710938 368.671875 231.84375 369.023438 Z M 238.058594 372.707031 C 240.816406 373.441406 243.433594 375.550781 244.65625 378.03125 C 247.710938 384.246094 244.535156 391.507812 237.96875 393.308594 C 237.167969 393.535156 236.222656 393.621094 234.742188 393.621094 C 232.121094 393.605469 230.445312 393.117188 228.457031 391.789062 C 225.488281 389.796875 223.933594 386.777344 223.933594 382.988281 C 223.933594 380.875 224.195312 379.707031 225.050781 378.015625 C 226.5 375.132812 229.414062 373.054688 232.871094 372.425781 C 234.007812 372.21875 236.78125 372.355469 238.058594 372.707031 Z M 238.058594 372.707031 " fill-opacity="1" fill-rule="nonzero"/><path fill="#1e478d" d="M 34.753906 382.988281 L 34.753906 396.867188 L 55.371094 396.867188 L 55.320312 395.15625 L 55.265625 393.464844 L 47.027344 393.414062 L 38.769531 393.378906 L 38.769531 384.472656 L 52.910156 384.472656 L 52.910156 381.15625 L 38.769531 381.15625 L 38.769531 372.601562 L 54.65625 372.601562 L 54.65625 369.109375 L 34.753906 369.109375 Z M 34.753906 382.988281 " fill-opacity="1" fill-rule="nonzero"/><path fill="#1e478d" d="M 61.8125 383.007812 L 61.8125 396.902344 L 69.285156 396.816406 C 77.230469 396.730469 77.632812 396.695312 80.164062 395.785156 C 82.1875 395.035156 83.636719 394.109375 85.226562 392.523438 C 86.917969 390.8125 87.878906 389.152344 88.558594 386.8125 C 89.117188 384.824219 89.117188 381.15625 88.558594 379.164062 C 87.878906 376.828125 86.917969 375.167969 85.226562 373.457031 C 83.566406 371.796875 82.136719 370.90625 79.882812 370.105469 C 77.472656 369.25 75.867188 369.109375 68.5 369.109375 L 61.8125 369.109375 Z M 76.617188 372.882812 C 80.582031 373.683594 83.480469 376.285156 84.613281 380.039062 C 85.050781 381.453125 85.050781 384.527344 84.613281 385.941406 C 83.757812 388.785156 81.996094 390.898438 79.445312 392.121094 C 77.160156 393.21875 76.042969 393.378906 70.542969 393.378906 L 65.828125 393.378906 L 65.828125 372.601562 L 70.542969 372.601562 C 74.140625 372.601562 75.589844 372.671875 76.617188 372.882812 Z M 76.617188 372.882812 " fill-opacity="1" fill-rule="nonzero"/><path fill="#1e478d" d="M 95.019531 378.574219 C 95.089844 387.84375 95.089844 388.085938 95.492188 389.363281 C 96.679688 393.289062 99.226562 395.75 103.191406 396.816406 C 104.972656 397.304688 109.125 397.253906 110.960938 396.730469 C 113.054688 396.117188 114.539062 395.261719 115.796875 393.917969 C 117.121094 392.523438 117.679688 391.527344 118.308594 389.449219 L 118.796875 387.878906 L 118.867188 378.484375 L 118.921875 369.109375 L 115.097656 369.109375 L 115.027344 378.046875 C 114.941406 387.71875 114.921875 387.929688 113.925781 389.972656 C 112.617188 392.679688 109.335938 394.09375 105.546875 393.585938 C 102.316406 393.167969 100.5 391.667969 99.472656 388.609375 C 99.105469 387.582031 99.085938 387.144531 99.035156 378.308594 L 98.984375 369.109375 L 94.96875 369.109375 Z M 95.019531 378.574219 " fill-opacity="1" fill-rule="nonzero"/><path fill="#1e478d" d="M 158.5 382.9375 L 152.125 396.78125 L 154.132812 396.835938 C 155.234375 396.851562 156.175781 396.851562 156.210938 396.816406 C 156.246094 396.765625 156.960938 395.210938 157.800781 393.359375 L 159.335938 389.972656 L 166.84375 389.921875 L 174.351562 389.886719 L 175.90625 393.378906 L 177.457031 396.867188 L 181.703125 396.867188 L 175.3125 383.023438 L 168.902344 369.195312 L 166.898438 369.144531 L 164.871094 369.09375 Z M 169.953125 380.054688 C 171.539062 383.617188 172.851562 386.585938 172.851562 386.636719 C 172.851562 386.691406 170.125 386.742188 166.808594 386.742188 C 162.042969 386.742188 160.785156 386.691406 160.855469 386.515625 C 160.910156 386.410156 162.21875 383.476562 163.769531 380.019531 C 165.324219 376.566406 166.632812 373.632812 166.6875 373.507812 C 166.738281 373.386719 166.84375 373.335938 166.914062 373.421875 C 167 373.492188 168.363281 376.476562 169.953125 380.054688 Z M 169.953125 380.054688 " fill-opacity="1" fill-rule="nonzero"/><path fill="#1e478d" d="M 181.753906 370.855469 L 181.753906 372.601562 L 191.355469 372.601562 L 191.355469 396.867188 L 195.371094 396.867188 L 195.371094 372.601562 L 204.972656 372.601562 L 204.972656 369.109375 L 181.753906 369.109375 Z M 181.753906 370.855469 " fill-opacity="1" fill-rule="nonzero"/><path fill="#1e478d" d="M 209.511719 382.988281 L 209.511719 396.867188 L 213.527344 396.867188 L 213.527344 369.109375 L 209.511719 369.109375 Z M 209.511719 382.988281 " fill-opacity="1" fill-rule="nonzero"/><path fill="#1e478d" d="M 255.953125 382.988281 L 255.953125 396.867188 L 259.96875 396.867188 L 260.003906 386.550781 L 260.054688 376.25 L 268.488281 386.550781 L 276.921875 396.867188 L 280.21875 396.867188 L 280.21875 369.109375 L 276.203125 369.109375 L 276.167969 379.394531 L 276.117188 389.695312 L 267.738281 379.445312 L 259.355469 369.195312 L 257.644531 369.144531 L 255.953125 369.09375 Z M 255.953125 382.988281 " fill-opacity="1" fill-rule="nonzero"/></svg>